<?xml version="1.0" encoding="UTF-8"?>
<svg version="1.1" xmlns="http://www.w3.org/2000/svg" width="1024" height="462">
<path d="M0 0 C0 0.66 0 1.32 0 2 C0.58265625 2.10441406 1.1653125 2.20882812 1.765625 2.31640625 C4.33645423 3.10293617 5.7340058 4.17565891 7.75 5.9375 C8.67039062 6.72447266 8.67039062 6.72447266 9.609375 7.52734375 C11 9 11 9 11 11 C11.58265625 11.23460937 12.1653125 11.46921875 12.765625 11.7109375 C15.50531734 13.29152924 16.86983969 15.09401497 18.75 17.625 C19.36359375 18.44226563 19.9771875 19.25953125 20.609375 20.1015625 C21.06828125 20.72804687 21.5271875 21.35453125 22 22 C21.99830811 20.97229492 21.99830811 20.97229492 21.99658203 19.92382812 C22.00878183 16.78158368 22.06654956 13.64171095 22.125 10.5 C22.12242187 9.42234375 22.11984375 8.3446875 22.1171875 7.234375 C22.29721325 -0.14668088 23.57978938 -4.81676603 29 -10 C35.15507999 -14.10338666 44.84351622 -12.88884855 52 -12 C61.05664103 -8.89100383 65.29130268 -2.46335331 69.6484375 5.609375 C70.99605214 7.99301709 72.45784913 10.23817873 74 12.5 C81.72459954 23.89727735 81.72459954 23.89727735 83 30 C83.66 30 84.32 30 85 30 C85.99 32.97 85.99 32.97 87 36 C87.66 36 88.32 36 89 36 C92 41.75 92 41.75 92 44 C92.66 44 93.32 44 94 44 C94.4021875 44.74830078 94.4021875 44.74830078 94.8125 45.51171875 C99.23958124 53.62318009 103.94309975 61.63527808 109.24609375 69.20703125 C111 72 111 72 111 75 C111.66 75 112.32 75 113 75 C115.04169485 77.90548882 116 79.40142046 116 83 C116.66 83 117.32 83 118 83 C119.4375 85.046875 119.4375 85.046875 121 87.75 C121.515625 88.63171875 122.03125 89.5134375 122.5625 90.421875 C123.77185892 92.59083393 124.8988772 94.77530661 126 97 C126.00586624 95.76051605 126.01173248 94.5210321 126.01777649 93.24398804 C126.07499771 81.56111008 126.14775645 69.87841837 126.23571491 58.19573021 C126.28043591 52.18958249 126.31968844 46.18350288 126.34643555 40.17724609 C126.37245094 34.38051082 126.41284138 28.58403739 126.46318626 22.78746414 C126.47986681 20.57633344 126.49137367 18.36515744 126.49761391 16.15397263 C126.50724182 13.05598269 126.53528638 9.95866444 126.56762695 6.86083984 C126.56619186 5.94733765 126.56475677 5.03383545 126.5632782 4.09265137 C126.65127408 -1.87050118 127.54729527 -6.22457097 131.6328125 -10.84765625 C135.31228277 -12.63881752 138.83688236 -12.47337988 142.875 -12.4375 C144.06029297 -12.4674707 144.06029297 -12.4674707 145.26953125 -12.49804688 C150.6371816 -12.49358128 153.81815522 -11.65131223 158 -8 C160.84097147 -4.11300259 161.37854724 -1.37095692 161.39440918 3.40733337 C161.40575897 4.70131546 161.41710876 5.99529755 161.42880249 7.32849121 C161.42615937 8.75537172 161.42318818 10.18225164 161.41992188 11.60913086 C161.42726422 13.11736174 161.43585093 14.625587 161.44558716 16.13380432 C161.46779371 20.22473955 161.47073432 24.3154733 161.46883965 28.40646052 C161.46871991 31.82349037 161.47728509 35.24047758 161.48561716 38.65749556 C161.50484784 46.71952796 161.50773615 54.78145681 161.50097656 62.84350586 C161.49433447 71.15689353 161.51720746 79.46983765 161.55429029 87.78313535 C161.58498896 94.92469811 161.5963472 102.06611819 161.59245348 109.20774561 C161.59038628 113.47139095 161.59586055 117.73469106 161.62034607 121.99827385 C161.64261393 126.00808803 161.64073573 130.01718101 161.62041855 134.02699852 C161.61700859 135.49675304 161.62209717 136.96655611 161.63640213 138.43624496 C161.74952045 150.92151836 161.74952045 150.92151836 158.63806152 154.80567932 C153.37032249 159.18734692 148.98079044 160.53454701 142.1875 160.4375 C141.48625 160.43427734 140.785 160.43105469 140.0625 160.42773438 C134.32668252 160.27400174 129.84888209 159.01708219 125 156 C125 155.34 125 154.68 125 154 C124.34 154 123.68 154 123 154 C123 153.34 123 152.68 123 152 C122.01 151.67 121.02 151.34 120 151 C118.48429823 148.89598568 117.13473874 146.84387442 115.8125 144.625 C115.26045898 143.73941406 115.26045898 143.73941406 114.69726562 142.8359375 C112.98258691 140.01101227 112 138.36248948 112 135 C111.34 135 110.68 135 110 135 C109.34 133.02 108.68 131.04 108 129 C107.34 129 106.68 129 106 129 C105.56300781 128.19949219 105.56300781 128.19949219 105.1171875 127.3828125 C99.7940222 117.70737368 94.0124161 108.38451959 87.95849609 99.15234375 C85.85007187 95.924077 83.79113124 92.69385976 81.89453125 89.3359375 C79.59580546 85.28828425 77.05280882 81.43326732 74.48828125 77.55078125 C73.16566699 75.28393843 72.44973965 73.56051774 72 71 C71.34 71 70.68 71 70 71 C69.70867187 70.46632813 69.41734375 69.93265625 69.1171875 69.3828125 C68.70726562 68.63773437 68.29734375 67.89265625 67.875 67.125 C67.48054687 66.40570313 67.08609375 65.68640625 66.6796875 64.9453125 C65.12074967 62.21173315 63.51625605 59.51287459 61.89501953 56.81591797 C61.35330109 55.91436981 60.81158264 55.01282166 60.25344849 54.08395386 C59.63299149 53.0523967 59.63299149 53.0523967 59 52 C58.99635437 53.24170456 58.99270874 54.48340912 58.98895264 55.76274109 C58.95202257 67.46067621 58.89427147 79.15834761 58.81609726 90.85608196 C58.77657648 96.87013025 58.74441045 102.88403111 58.72900391 108.89819336 C58.71386783 114.70146174 58.67947604 120.50432491 58.63169098 126.3074131 C58.61684578 128.52215873 58.60895719 130.73696221 58.60811615 132.95175743 C58.60575425 136.05250706 58.57873623 139.15212979 58.54589844 142.25268555 C58.55344398 143.62833176 58.55344398 143.62833176 58.56114197 145.0317688 C58.4933572 149.16472602 58.36076999 151.41789853 56.14215088 154.99763489 C50.42413592 160.34252155 44.92772938 160.52182663 37.42578125 160.35546875 C32.07172152 159.79991637 28.16888639 158.26024354 24.43505859 154.36914062 C22.46743916 151.12079442 22.56579497 148.61079476 22.48828125 144.828125 C22.47033005 144.1457074 22.45237885 143.46328979 22.43388367 142.76019287 C22.37989617 140.5901906 22.34592417 138.42040675 22.3125 136.25 C22.27931648 134.77470926 22.24482585 133.29944731 22.20898438 131.82421875 C22.12417842 128.21635573 22.05731163 124.60841638 22 121 C21.34 121 20.68 121 20 121 C19.75507812 121.73347656 19.51015625 122.46695313 19.2578125 123.22265625 C13.44113022 136.06632426 -2.77115721 143.59965974 -15 149 C-19.53795141 150.67809662 -24.17940475 151.85516916 -28.875 153 C-29.54402344 153.165 -30.21304688 153.33 -30.90234375 153.5 C-32.17403694 153.81363532 -33.44597337 154.12628778 -34.71826172 154.4375 C-36.69835766 154.92563835 -38.67156609 155.44155421 -40.64331055 155.96240234 C-57.15955459 160.07039246 -74.07566055 160.48203529 -91.00463867 160.39111328 C-94.56272602 160.37499898 -98.1196806 160.39108084 -101.67773438 160.41015625 C-115.70971212 160.42107976 -129.18051257 159.44874066 -143 157 C-143.5075072 114.90422971 -141.41951709 73.57946099 -123 35 C-122.62230469 34.15695313 -122.24460937 33.31390625 -121.85546875 32.4453125 C-119.39474516 27.14127932 -116.35670904 22.39431382 -113 17.625 C-112.58459961 17.02953369 -112.16919922 16.43406738 -111.74121094 15.82055664 C-109.17155079 12.26174919 -106.4809129 9.64694418 -103 7 C-102.67 6.34 -102.34 5.68 -102 5 C-101.01 5 -100.02 5 -99 5 C-98.505 3.515 -98.505 3.515 -98 2 C-95.41927097 -0.32265612 -94.54823932 -1 -91 -1 C-91 -1.66 -91 -2.32 -91 -3 C-60.47165347 -17.78567254 -29.90014432 -15.22079781 0 0 Z M-76 47 C-77.546875 47.804375 -77.546875 47.804375 -79.125 48.625 C-79.74375 49.07875 -80.3625 49.5325 -81 50 C-81 50.66 -81 51.32 -81 52 C-81.66 52 -82.32 52 -83 52 C-83 52.66 -83 53.32 -83 54 C-83.99 54.33 -84.98 54.66 -86 55 C-86 55.66 -86 56.32 -86 57 C-86.66 57 -87.32 57 -88 57 C-95.02635065 69.18092756 -99.75147666 81.07569209 -101.6875 95.0625 C-101.81487549 95.9599292 -101.94225098 96.8573584 -102.07348633 97.78198242 C-103.18335632 106.21208148 -103.30026597 114.51470602 -103 123 C-98.51829172 124.7170625 -94.76617401 125.26658344 -89.9765625 125.30078125 C-89.3175293 125.3063353 -88.65849609 125.31188934 -87.97949219 125.31761169 C-85.86109889 125.3293435 -83.74339236 125.32316235 -81.625 125.3125 C-80.90479675 125.31100952 -80.18459351 125.30951904 -79.44256592 125.3079834 C-60.70571245 125.23791954 -43.01646192 123.24148984 -28.28125 110.515625 C-20.99764463 103.00905212 -18.34600365 92.24166264 -17.9296875 82.06640625 C-18.11569318 73.95449172 -20.40919302 67.21647615 -24 60 C-24.66 60 -25.32 60 -26 60 C-26.25136719 59.41347656 -26.50273438 58.82695312 -26.76171875 58.22265625 C-30.51735347 51.48146965 -38.30073222 46.83736202 -45.375 44.3125 C-55.85119332 41.37291143 -66.38079249 41.87592215 -76 47 Z " fill="#00B75E" transform="translate(781,161)"/>
<path d="M0 0 C0.67991501 -0.0065712 1.35983002 -0.0131424 2.06034851 -0.01991272 C4.32514555 -0.03971791 6.5898755 -0.05133464 8.85473633 -0.0612793 C9.63068964 -0.06535482 10.40664295 -0.06943035 11.20611 -0.07362938 C15.32653159 -0.09453757 19.44691957 -0.10880906 23.56738281 -0.11816406 C27.79127745 -0.12913679 32.01463177 -0.16341453 36.23833752 -0.20333576 C39.50984041 -0.22972969 42.78122026 -0.23787666 46.05282021 -0.24144554 C47.60708508 -0.24626643 49.16134617 -0.25774909 50.7155056 -0.27648354 C65.26738923 -0.44075079 78.87561672 1.48378074 90.49926758 11.17700195 C92.56940241 13.52389277 93.27116446 15.15791511 94.49926758 18.17700195 C94.79317383 18.88211914 95.08708008 19.58723633 95.38989258 20.3137207 C99.14157109 30.63083661 98.86363348 42.13669905 94.49926758 52.17700195 C94.16926758 53.16700195 93.83926758 54.15700195 93.49926758 55.17700195 C92.83926758 55.17700195 92.17926758 55.17700195 91.49926758 55.17700195 C91.27239258 55.75450195 91.04551758 56.33200195 90.81176758 56.92700195 C89.16888735 59.74336806 87.10393531 61.2577731 84.49926758 63.17700195 C85.09094727 63.61270508 85.68262695 64.0484082 86.29223633 64.49731445 C93.66086911 70.05083541 99.07896602 74.91527679 101.49926758 84.17700195 C101.93573405 87.99889048 101.96431115 91.77092236 101.93676758 95.61450195 C101.95674805 96.59999023 101.97672852 97.58547852 101.99731445 98.60083008 C101.99284646 105.34303237 100.73638895 110.27596731 97.49926758 116.17700195 C96.94239258 117.20825195 96.38551758 118.23950195 95.81176758 119.30200195 C87.31001949 129.87174282 75.52923801 133.49979152 62.49926758 135.17700195 C57.10787226 135.43635538 51.72663905 135.41144539 46.33129883 135.37231445 C44.80002529 135.36857546 43.26874934 135.36573269 41.73747253 135.36373901 C37.74430514 135.35617221 33.75128765 135.33658516 29.75817871 135.31433105 C25.66864041 135.29372114 21.57907743 135.2847052 17.48950195 135.2746582 C9.49268904 135.25333131 1.49599706 135.21928149 -6.50073242 135.17700195 C-7.78242151 132.61362377 -7.62660046 130.80299613 -7.62771606 127.93199158 C-7.63053589 126.82001907 -7.63335571 125.70804657 -7.63626099 124.56237793 C-7.63423676 123.33684204 -7.63221252 122.11130615 -7.63012695 120.84863281 C-7.63275543 118.9193972 -7.63275543 118.9193972 -7.63543701 116.95118713 C-7.64000516 113.4182837 -7.63822444 109.8854094 -7.63505793 106.35250545 C-7.63253169 102.6613995 -7.63487255 98.9702961 -7.63644409 95.27919006 C-7.63826478 89.08097891 -7.63586186 82.88277966 -7.63110352 76.68457031 C-7.62565869 69.50909247 -7.62742555 62.33364303 -7.63292992 55.15816587 C-7.63746105 49.00614139 -7.63811168 42.85412547 -7.63549125 36.70209986 C-7.63392878 33.02388293 -7.63373394 29.34567938 -7.63702774 25.6674633 C-7.64044029 21.57028381 -7.63571675 17.47315365 -7.63012695 13.37597656 C-7.63215118 12.14841644 -7.63417542 10.92085632 -7.63626099 9.65609741 C-7.63344116 8.54694473 -7.63062134 7.43779205 -7.62771606 6.29502869 C-7.62733904 5.32513473 -7.62696201 4.35524076 -7.62657356 3.35595608 C-7.36091836 -1.24389502 -3.87312517 0.03088213 0 0 Z M20.49926758 22.17700195 C20.49926758 33.06700195 20.49926758 43.95700195 20.49926758 55.17700195 C43.22429681 56.81039814 43.22429681 56.81039814 64.74926758 50.92700195 C68.71687132 46.95939821 69.39667417 44.12627664 69.68676758 38.61450195 C69.5267364 35.68059707 69.18990982 33.0259012 68.49926758 30.17700195 C67.83926758 30.17700195 67.17926758 30.17700195 66.49926758 30.17700195 C66.49926758 29.18700195 66.49926758 28.19700195 66.49926758 27.17700195 C65.50926758 27.17700195 64.51926758 27.17700195 63.49926758 27.17700195 C63.49926758 26.51700195 63.49926758 25.85700195 63.49926758 25.17700195 C53.50290552 22.60194683 44.44758896 21.78615472 34.12426758 21.98950195 C29.62801758 22.05137695 25.13176758 22.11325195 20.49926758 22.17700195 Z M20.49926758 77.17700195 C20.49926758 88.72700195 20.49926758 100.27700195 20.49926758 112.17700195 C25.58646312 112.26940308 30.67068695 112.3488609 35.75805664 112.39672852 C37.4843946 112.4167048 39.21066611 112.44389567 40.93676758 112.47875977 C56.33840634 112.84687495 56.33840634 112.84687495 69.99926758 106.30200195 C73.4436841 101.42241189 74.27695491 96.04910488 73.49926758 90.17700195 C72.68574126 87.68939834 71.67526698 85.52900075 70.49926758 83.17700195 C69.83926758 83.17700195 69.17926758 83.17700195 68.49926758 83.17700195 C68.00426758 81.69200195 68.00426758 81.69200195 67.49926758 80.17700195 C61.97179391 77.07350047 57.31188906 76.76873404 51.06567383 76.8840332 C50.18773666 76.88827805 49.3097995 76.89252289 48.40525818 76.89689636 C45.62377178 76.91357905 42.84303194 76.9512111 40.06176758 76.98950195 C38.16659581 77.00456228 36.27141259 77.01824832 34.3762207 77.03051758 C29.75005639 77.06088627 25.12548951 77.11962575 20.49926758 77.17700195 Z " fill="#FEFEFE" transform="translate(85.500732421875,148.822998046875)"/>
<path d="M0 0 C0 0.66 0 1.32 0 2 C0.99 2 1.98 2 3 2 C3 2.66 3 3.32 3 4 C3.58652344 4.25136719 4.17304688 4.50273437 4.77734375 4.76171875 C7.27764337 6.15468005 8.70759876 7.64222406 10.5625 9.8125 C11.14128906 10.47894531 11.72007812 11.14539063 12.31640625 11.83203125 C22.34524248 24.74619392 22.46229858 43.52464096 20.76855469 59.1328125 C19.64235501 67.12365682 17.11955253 74.09259318 13 81 C12.66613281 81.62261719 12.33226562 82.24523437 11.98828125 82.88671875 C7.02374635 91.09942519 -3.00405756 96.40794879 -12 99 C-17.81403596 100.0463791 -23.48872804 100.18329552 -29.375 100.1875 C-30.26960938 100.19974609 -31.16421875 100.21199219 -32.0859375 100.22460938 C-44.82039591 100.25237346 -56.50127555 96.76949167 -66 88 C-70.75173115 82.82950118 -74.79260939 77.73835029 -77 71 C-77.27585938 70.24460937 -77.55171875 69.48921875 -77.8359375 68.7109375 C-83.08159674 52.01145349 -81.34854167 32.15103588 -74 16.375 C-72.1877266 13.31678863 -70.43158908 10.59369502 -68 8 C-67.34 8 -66.68 8 -66 8 C-65.67 7.01 -65.34 6.02 -65 5 C-64.34 5 -63.68 5 -63 5 C-63 4.34 -63 3.68 -63 3 C-60.0663495 1.19239717 -57.06941709 -0.43424244 -54 -2 C-53.21109375 -2.40347656 -52.4221875 -2.80695313 -51.609375 -3.22265625 C-35.65898892 -9.884569 -15.166947 -7.5834735 0 0 Z M-47 24 C-49.86224696 28.06278021 -50.96481589 32.10706341 -51.8125 36.9375 C-51.94358154 37.68169189 -52.07466309 38.42588379 -52.2097168 39.19262695 C-53.77494461 49.36065012 -52.40526673 60.04078322 -47.25 69.0625 C-42.73717001 74.98412419 -42.73717001 74.98412419 -36.07421875 77.63671875 C-29.10542056 78.39829129 -22.25397764 78.5171556 -16 75 C-9.05029173 68.31036397 -7.2403757 60.53423112 -6.83203125 51.1328125 C-6.70905836 40.16795545 -6.88992889 30.10369604 -14.25 21.3125 C-20.04528888 16.43918889 -24.92636105 15.48089905 -32.3515625 15.71484375 C-38.71983658 16.40051338 -42.81884231 19.1219827 -47 24 Z " fill="#FEFEFE" transform="translate(273,186)"/>
<path d="M0 0 C11.14537059 5.6710268 17.6055036 15.70513997 21.5859375 27.28515625 C23.44099551 33.60684613 23.45210943 39.91686315 23.39111328 46.44970703 C23.37502282 48.49709677 23.39104065 50.54251348 23.41015625 52.58984375 C23.42695566 62.37013424 22.3815574 70.91770119 17.0625 79.3125 C16.57910156 80.09238281 16.09570312 80.87226563 15.59765625 81.67578125 C8.88650182 91.43895212 -0.92379578 98.02630781 -12.55078125 100.5546875 C-17.31284276 101.16949499 -22.01575558 101.18427421 -26.8125 101.1875 C-27.75931641 101.19974609 -28.70613281 101.21199219 -29.68164062 101.22460938 C-42.00549504 101.25005436 -52.95120528 98.05660478 -62.75 90.25 C-63.4925 89.5075 -64.235 88.765 -65 88 C-65 87.34 -65 86.68 -65 86 C-65.66 86 -66.32 86 -67 86 C-79.06098414 70.13181364 -78.71974461 49.01059285 -76.37011719 30.01635742 C-75.81686126 27.00228042 -74.7478328 24.3519867 -73.5 21.5625 C-73.0565625 20.55316406 -72.613125 19.54382813 -72.15625 18.50390625 C-71.45843507 16.99275972 -70.74438021 15.48876043 -70 14 C-69.34 14 -68.68 14 -68 14 C-67.773125 13.443125 -67.54625 12.88625 -67.3125 12.3125 C-62.06421496 3.0655216 -52.60194314 -0.88089745 -43 -4 C-29.9446013 -8.35179957 -12.20911399 -5.94722305 0 0 Z M-43.25 23.1875 C-50.5009425 34.84080045 -51.29341366 47.55225624 -49 61 C-47.5474139 65.42146823 -45.5752672 69.13709919 -43 73 C-42.34 73 -41.68 73 -41 73 C-40.67 73.99 -40.34 74.98 -40 76 C-33.42503224 80.02158222 -25.2731632 79.48854894 -18 78 C-15.14764432 76.69695762 -15.14764432 76.69695762 -13 75 C-13 74.34 -13 73.68 -13 73 C-12.01 72.67 -11.02 72.34 -10 72 C-2.97537333 63.21921667 -3.2173653 50.64597609 -4 40 C-5.06177651 33.20956882 -6.99421723 26.91209165 -12 22 C-21.89572266 14.87246407 -34.31513156 14.50082235 -43.25 23.1875 Z " fill="#EFEFEF" transform="translate(586,185)"/>
<path d="M0 0 C1.051875 -0.00257813 2.10375 -0.00515625 3.1875 -0.0078125 C6 0.125 6 0.125 9 1.125 C12.39288202 6.60580942 13 11.77439433 13 18.125 C13.66 18.125 14.32 18.125 15 18.125 C15.33 17.135 15.66 16.145 16 15.125 C17.75 13.84375 17.75 13.84375 20 12.625 C20.721875 12.2228125 21.44375 11.820625 22.1875 11.40625 C29.31726145 8.15824756 35.59082957 6.61254941 43.4375 6.75 C44.26789795 6.75870117 45.0982959 6.76740234 45.95385742 6.77636719 C55.38485977 7.00186102 63.76951597 8.74030022 70.58984375 15.76171875 C77.41742859 23.45735838 79.15930575 29.56871673 79.12939453 39.84277344 C79.13202301 40.9658062 79.13202301 40.9658062 79.13470459 42.11152649 C79.13908157 44.5691667 79.13620101 47.02673414 79.1328125 49.484375 C79.13348645 51.19736749 79.13445724 52.91035989 79.13571167 54.62335205 C79.13718276 58.20415156 79.13505194 61.78492606 79.13037109 65.36572266 C79.12465687 69.9614853 79.1279672 74.55718975 79.13394356 79.15295029 C79.13755034 82.68559206 79.13641034 86.21821994 79.13381577 89.75086212 C79.13314772 91.44618995 79.13397068 93.14151903 79.13629532 94.8368454 C79.13882562 97.19953275 79.13497669 99.56212449 79.12939453 101.92480469 C79.13141876 102.62819473 79.13344299 103.33158478 79.13552856 104.05628967 C79.11426826 108.89646348 79.11426826 108.89646348 78 111.125 C74.04172765 111.18285647 70.0835633 111.21854717 66.125 111.25 C64.99707031 111.26675781 63.86914062 111.28351563 62.70703125 111.30078125 C61.09248047 111.31044922 61.09248047 111.31044922 59.4453125 111.3203125 C58.45031738 111.33078613 57.45532227 111.34125977 56.43017578 111.35205078 C54 111.125 54 111.125 52 109.125 C51.73498535 106.50190735 51.73498535 106.50190735 51.71289062 103.1340332 C51.69947632 101.87544998 51.68606201 100.61686676 51.67224121 99.32014465 C51.66967819 98.64523294 51.66711517 97.97032124 51.66447449 97.27495766 C51.65618731 95.15977995 51.63568088 93.04503446 51.61193848 90.92997742 C51.56366032 86.43254923 51.5308045 81.93507729 51.5 77.4375 C51.46426182 72.24183547 51.42212333 67.04637907 51.36405945 61.85091209 C51.34410724 59.77544175 51.33569222 57.70013389 51.32775879 55.62458801 C51.31434448 54.35024399 51.30093018 53.07589996 51.28710938 51.76293945 C51.27617249 50.0898748 51.27617249 50.0898748 51.26501465 48.38301086 C50.87937326 43.64205086 50.15685574 39.50576331 47.0625 35.8125 C42.52721971 32.10181612 39.29850994 31.78854092 33.625 31.8125 C32.86960937 31.79638672 32.11421875 31.78027344 31.3359375 31.76367188 C26.73812305 31.75965281 23.73747726 32.15954989 20 35.125 C19.505 36.115 19.505 36.115 19 37.125 C18.34 37.125 17.68 37.125 17 37.125 C12.93888208 45.51797704 13.81832132 55.77294009 13.71875 64.875 C13.69063086 66.85219988 13.6625064 68.8293997 13.63405609 70.80659485 C13.57582928 74.94792437 13.52519409 79.08935323 13.47393799 83.23077393 C13.4312131 86.66659179 13.38668739 90.10236058 13.33703613 93.53808594 C13.30027468 96.10768754 13.2678614 98.67735558 13.2401123 101.24707031 C13.22339478 102.39916992 13.20667725 103.55126953 13.18945312 104.73828125 C13.17066101 106.26642456 13.17066101 106.26642456 13.15148926 107.82543945 C13 110.125 13 110.125 12 111.125 C8.20054187 111.50820261 4.37735217 111.59512839 0.5625 111.75 C-1.05108398 111.82734375 -1.05108398 111.82734375 -2.69726562 111.90625 C-3.72400391 111.95007813 -4.75074219 111.99390625 -5.80859375 112.0390625 C-6.75532959 112.0798291 -7.70206543 112.1205957 -8.67749023 112.16259766 C-11 112.125 -11 112.125 -13 111.125 C-13.17716384 98.2076531 -13.34310577 85.29021524 -13.49477577 72.37254238 C-13.56555584 66.37416965 -13.64018104 60.37589643 -13.72363281 54.37768555 C-13.80404608 48.58765573 -13.87430783 42.79758308 -13.93757248 37.00734138 C-13.96346917 34.79974909 -13.99300569 32.59219635 -14.02626419 30.38470268 C-14.0722698 27.28961669 -14.1052594 24.19464213 -14.13525391 21.09936523 C-14.1517952 20.18945831 -14.16833649 19.27955139 -14.18537903 18.34207153 C-14.22317896 12.66331187 -14.16236902 6.94548133 -10.5625 2.25 C-7.21239036 -0.16207894 -3.97394316 -0.00974006 0 0 Z " fill="#FEFEFE" transform="translate(317,172.875)"/>
<path d="M0 0 C1.051875 -0.00257813 2.10375 -0.00515625 3.1875 -0.0078125 C6.14202033 0.13170652 8.18885797 0.58720465 10.66918945 2.23168945 C12.69291599 5.11079407 12.36958122 8.03124931 12.29296875 11.41796875 C12.28872391 12.12399734 12.28447906 12.83002594 12.28010559 13.55744934 C12.26333034 15.80952303 12.22568243 18.06069742 12.1875 20.3125 C12.17245157 21.84048185 12.15876344 23.36847776 12.14648438 24.89648438 C12.11343089 28.63966872 12.06165832 32.38218196 12 36.125 C13.10456543 36.0935791 13.10456543 36.0935791 14.23144531 36.06152344 C17.57082442 35.97832856 20.90998549 35.92632843 24.25 35.875 C25.40886719 35.84148437 26.56773437 35.80796875 27.76171875 35.7734375 C28.87675781 35.76054687 29.99179687 35.74765625 31.140625 35.734375 C32.16704102 35.71342773 33.19345703 35.69248047 34.25097656 35.67089844 C37.7289133 36.24540664 38.87672427 37.36237821 41 40.125 C41.53125 43.21875 41.53125 43.21875 41.5 46.625 C41.51546875 48.31109375 41.51546875 48.31109375 41.53125 50.03125 C40.88220773 53.81096677 39.98470175 54.78246514 37 57.125 C34.25097656 57.57910156 34.25097656 57.57910156 31.140625 57.515625 C30.02558594 57.50273437 28.91054688 57.48984375 27.76171875 57.4765625 C26.02341797 57.42628906 26.02341797 57.42628906 24.25 57.375 C23.07566406 57.35695312 21.90132813 57.33890625 20.69140625 57.3203125 C17.7934466 57.2731912 14.89713582 57.20741305 12 57.125 C12.09281945 63.65397535 12.20019203 70.18259863 12.31738281 76.71118164 C12.35551631 78.92922628 12.39039561 81.14732946 12.421875 83.36547852 C12.46786647 86.56547889 12.52580329 89.76508158 12.5859375 92.96484375 C12.59748871 93.94645981 12.60903992 94.92807587 12.62094116 95.93943787 C12.74372215 101.74981638 13.00299079 107.60739308 15 113.125 C18.89045916 116.0410127 24.11870838 115.35229554 28.8125 115.25 C29.60076172 115.24097656 30.38902344 115.23195313 31.20117188 115.22265625 C33.13424666 115.19922504 35.0671638 115.16335838 37 115.125 C37.53321262 117.35123801 38.05110119 119.58115004 38.5625 121.8125 C38.99755859 123.67455078 38.99755859 123.67455078 39.44140625 125.57421875 C39.97550021 128.96926359 40.28287759 130.95390431 39 134.125 C35.13400704 137.02921578 32.26462207 137.50914169 27.484375 137.5234375 C26.23269531 137.52730469 24.98101562 137.53117188 23.69140625 137.53515625 C22.39074219 137.52355469 21.09007812 137.51195312 19.75 137.5 C18.46480469 137.51160156 17.17960937 137.52320313 15.85546875 137.53515625 C-0.05622489 137.48619719 -0.05622489 137.48619719 -5.73535156 132.64599609 C-7 131.125 -7 131.125 -7 129.125 C-7.66 129.125 -8.32 129.125 -9 129.125 C-14.33010641 119.91845256 -14.26088101 110.25974392 -13.9765625 99.8984375 C-13.95153656 98.66960846 -13.92651062 97.44077942 -13.90072632 96.17471313 C-13.81911711 92.28283642 -13.72229986 88.39151284 -13.625 84.5 C-13.5667001 81.84767822 -13.50939821 79.1953343 -13.453125 76.54296875 C-13.31362674 70.07001169 -13.16166946 63.59743925 -13 57.125 C-14.13562378 57.14675293 -14.13562378 57.14675293 -15.29418945 57.16894531 C-16.28636475 57.18022461 -17.27854004 57.19150391 -18.30078125 57.203125 C-19.77671753 57.22487793 -19.77671753 57.22487793 -21.2824707 57.24707031 C-24 57.125 -24 57.125 -27.1875 55.875 C-30.14687256 51.38491749 -29.99089967 46.32551483 -29 41.125 C-27.38647461 38.45874023 -27.38647461 38.45874023 -25 36.125 C-21.765625 35.63671875 -21.765625 35.63671875 -18.25 35.8125 C-17.07953125 35.85761719 -15.9090625 35.90273437 -14.703125 35.94921875 C-13.36507813 36.03623047 -13.36507813 36.03623047 -12 36.125 C-12.01571045 35.20686523 -12.0314209 34.28873047 -12.04760742 33.34277344 C-12.0988087 29.92849051 -12.13638479 26.51461696 -12.16479492 23.10009766 C-12.17985923 21.62379509 -12.20031482 20.14753712 -12.22631836 18.67138672 C-12.26280739 16.54643742 -12.27974933 14.42208099 -12.29296875 12.296875 C-12.3086792 11.0190918 -12.32438965 9.74130859 -12.34057617 8.42480469 C-11.97865288 4.91817016 -11.5075923 3.55006952 -9 1.125 C-5.77717587 0.05072529 -3.38488847 -0.0082963 0 0 Z " fill="#FEFEFE" transform="translate(469,147.875)"/>
<path d="M0 0 C1.38638672 -0.00193359 1.38638672 -0.00193359 2.80078125 -0.00390625 C3.76371094 -0.00003906 4.72664063 0.00382813 5.71875 0.0078125 C7.16314453 0.00201172 7.16314453 0.00201172 8.63671875 -0.00390625 C9.56097656 -0.00261719 10.48523438 -0.00132812 11.4375 0 C12.7049707 0.00169189 12.7049707 0.00169189 13.99804688 0.00341797 C16.21875 0.1328125 16.21875 0.1328125 19.21875 1.1328125 C19.241871 14.1539189 19.25966384 27.17502045 19.27056217 40.19614315 C19.27579153 46.24169067 19.28289014 52.2872242 19.29418945 58.33276367 C19.30501645 64.16175538 19.31102643 69.99073359 19.31362724 75.81973457 C19.31548183 78.0489886 19.31910308 80.27824185 19.32448006 82.50749016 C19.33168799 85.61820984 19.33274105 88.72887299 19.33227539 91.83959961 C19.33587067 92.77107819 19.33946594 93.70255676 19.34317017 94.66226196 C19.33280216 101.01876034 19.33280216 101.01876034 18.21875 102.1328125 C16.37715977 102.23240871 14.53178033 102.26361661 12.6875 102.265625 C11.56730469 102.26691406 10.44710938 102.26820313 9.29296875 102.26953125 C8.11347656 102.26566406 6.93398438 102.26179688 5.71875 102.2578125 C3.94951172 102.26361328 3.94951172 102.26361328 2.14453125 102.26953125 C1.02433594 102.26824219 -0.09585937 102.26695312 -1.25 102.265625 C-2.28576172 102.26449707 -3.32152344 102.26336914 -4.38867188 102.26220703 C-6.78125 102.1328125 -6.78125 102.1328125 -7.78125 101.1328125 C-7.87658653 98.02774 -7.90676126 94.94494792 -7.89477539 91.83959961 C-7.89492142 90.86409653 -7.89506744 89.88859344 -7.8952179 88.88352966 C-7.89451833 85.64238297 -7.88672391 82.40129296 -7.87890625 79.16015625 C-7.87704222 76.91956107 -7.87561825 74.67896548 -7.87461853 72.43836975 C-7.87079213 66.5282174 -7.8609608 60.61808945 -7.84991455 54.70794678 C-7.83970306 48.68225433 -7.83512147 42.65655797 -7.83007812 36.63085938 C-7.81933864 24.79816634 -7.80226076 12.96549144 -7.78125 1.1328125 C-4.88180169 0.16632973 -3.0154352 0.00402518 0 0 Z " fill="#FEFEFE" transform="translate(417.78125,181.8671875)"/>
<path d="M0 0 C5.72339638 3.05849119 10.43204664 6.52913818 14 12 C13.89233398 13.99121094 13.89233398 13.99121094 13 16 C11.08227539 17.55566406 11.08227539 17.55566406 8.59765625 19.015625 C7.70755859 19.54414063 6.81746094 20.07265625 5.90039062 20.6171875 C4.96388672 21.15601563 4.02738281 21.69484375 3.0625 22.25 C2.12986328 22.80429688 1.19722656 23.35859375 0.23632812 23.9296875 C-6.69623615 28 -6.69623615 28 -9 28 C-12 24.53846154 -12 24.53846154 -12 22 C-19.35153842 18.04147931 -27.10888847 16.33814928 -35.3125 18.65234375 C-41.46553518 21.36760359 -44.47969905 25.73135295 -47.25 31.6875 C-48.39376004 36.73910685 -48.68262352 41.83845614 -49 47 C-54.90078929 49.4852736 -60.87287278 51.70299551 -66.9375 53.75 C-67.5879126 53.97260498 -68.2383252 54.19520996 -68.90844727 54.42456055 C-71.73927207 55.36718268 -73.99379164 56 -77 56 C-77.02727678 53.02076997 -77.04697128 50.04179621 -77.0625 47.0625 C-77.07087891 46.23169922 -77.07925781 45.40089844 -77.08789062 44.54492188 C-77.11953679 36.41185872 -76.86618851 29.08749698 -73.5 21.5625 C-73.0565625 20.55316406 -72.613125 19.54382813 -72.15625 18.50390625 C-71.45843507 16.99275972 -70.74438021 15.48876043 -70 14 C-69.34 14 -68.68 14 -68 14 C-67.773125 13.443125 -67.54625 12.88625 -67.3125 12.3125 C-62.06421496 3.0655216 -52.60194314 -0.88089745 -43 -4 C-29.96509844 -8.34496719 -12.18594891 -5.96766907 0 0 Z " fill="#FEFEFE" transform="translate(586,185)"/>
<path d="M0 0 C10.35093263 0.9021455 20.69532423 1.85722256 31.03125 2.91796875 C54.00009422 5.27059999 76.97429871 7.29001465 100 9 C97.44317604 14.44793233 93.30870688 16.58715801 87.859375 18.9140625 C76.70769152 22.88534546 65.54674973 23.28027616 53.83203125 23.1953125 C52.30075772 23.19157351 50.76948176 23.18873073 49.23820496 23.18673706 C45.24503756 23.17917026 41.25202007 23.15958321 37.25891113 23.1373291 C33.16937283 23.11671918 29.07980985 23.10770325 24.99023438 23.09765625 C16.99342146 23.07632936 8.99672948 23.04227954 1 23 C-0.2263757 20.54724859 -0.11415314 18.9494219 -0.09765625 16.2109375 C-0.09443359 15.26992188 -0.09121094 14.32890625 -0.08789062 13.359375 C-0.07951172 12.37453125 -0.07113281 11.3896875 -0.0625 10.375 C-0.05798828 9.38242187 -0.05347656 8.38984375 -0.04882812 7.3671875 C-0.03702145 4.9113984 -0.020554 2.45572896 0 0 Z " fill="#EFEFEF" transform="translate(78,261)"/>
<path d="M0 0 C0.50615298 1.26839526 1.00469099 2.53983102 1.5 3.8125 C1.7784375 4.52019531 2.056875 5.22789062 2.34375 5.95703125 C3 8 3 8 3 11 C7.62816733 13.35582065 11.75534135 13.23521469 16.8125 13.125 C17.60076172 13.11597656 18.38902344 13.10695313 19.20117188 13.09765625 C21.13424666 13.07422504 23.0671638 13.03835838 25 13 C25.53321262 15.22623801 26.05110119 17.45615004 26.5625 19.6875 C26.85253906 20.92886719 27.14257812 22.17023438 27.44140625 23.44921875 C27.97550021 26.84426359 28.28287759 28.82890431 27 32 C23.13400704 34.90421578 20.26462207 35.38414169 15.484375 35.3984375 C13.60685547 35.40423828 13.60685547 35.40423828 11.69140625 35.41015625 C10.39074219 35.39855469 9.09007812 35.38695312 7.75 35.375 C6.46480469 35.38660156 5.17960937 35.39820313 3.85546875 35.41015625 C-12.05622489 35.36119719 -12.05622489 35.36119719 -17.73535156 30.52099609 C-19 29 -19 29 -19 27 C-19.66 27 -20.32 27 -21 27 C-25.01458083 20.06572403 -26.14968738 12.92191679 -26 5 C-22.4182952 4.15956003 -18.83439357 3.32889101 -15.25 2.5 C-14.23421875 2.26152344 -13.2184375 2.02304688 -12.171875 1.77734375 C-11.1921875 1.55175781 -10.2125 1.32617188 -9.203125 1.09375 C-8.30239258 0.88427734 -7.40166016 0.67480469 -6.47363281 0.45898438 C-4 0 -4 0 0 0 Z " fill="#EFEFEF" transform="translate(481,250)"/>
<path d="M0 0 C24.33975727 -0.2262994 48.6684196 0.4415357 73 1 C69.95733305 7.49903712 63.64387914 9.97867131 57.15234375 12.421875 C50.71512453 14.15092844 44.2377234 14.18277663 37.625 14.1875 C36.73039062 14.19974609 35.83578125 14.21199219 34.9140625 14.22460938 C22.04092409 14.25267581 10.71676665 10.67568451 1 2 C0.67 1.34 0.34 0.68 0 0 Z " fill="#EFEFEF" transform="translate(206,272)"/>
<path d="M0 0 C3.3450293 3.42486294 3.43249403 6.24690693 3.4375 10.9375 C3.46650391 12.74541016 3.46650391 12.74541016 3.49609375 14.58984375 C2.91787784 18.56450903 1.78858773 20.17009985 -1 23 C-5.28085456 25.56851274 -10.14332062 25.70237691 -15 25 C-18.96765506 22.94269737 -21.68876896 20.81683298 -24 17 C-24.77140179 12.02445848 -25.1514882 6.51316869 -23.015625 1.8515625 C-17.49760082 -5.13112242 -6.91046873 -4.60697915 0 0 Z " fill="#FFFFFF" transform="translate(434,151)"/>
<path d="M0 0 C0.02886984 3.97915159 0.04675406 7.95827653 0.0625 11.9375 C0.07087891 13.07380859 0.07925781 14.21011719 0.08789062 15.38085938 C0.09272461 17.00024414 0.09272461 17.00024414 0.09765625 18.65234375 C0.10551147 20.15269165 0.10551147 20.15269165 0.11352539 21.68334961 C0 24 0 24 -1 25 C-2.84159023 25.09959621 -4.68696967 25.13080411 -6.53125 25.1328125 C-7.65144531 25.13410156 -8.77164062 25.13539063 -9.92578125 25.13671875 C-11.10527344 25.13285156 -12.28476562 25.12898438 -13.5 25.125 C-15.26923828 25.13080078 -15.26923828 25.13080078 -17.07421875 25.13671875 C-18.75451172 25.13478516 -18.75451172 25.13478516 -20.46875 25.1328125 C-21.50451172 25.13168457 -22.54027344 25.13055664 -23.60742188 25.12939453 C-26 25 -26 25 -27 24 C-27.08669432 22.5112814 -27.10703494 21.018555 -27.09765625 19.52734375 C-27.09443359 18.62822266 -27.09121094 17.72910156 -27.08789062 16.80273438 C-27.07951172 15.85720703 -27.07113281 14.91167969 -27.0625 13.9375 C-27.05798828 12.98810547 -27.05347656 12.03871094 -27.04882812 11.06054688 C-27.0370011 8.70696935 -27.02052025 6.35351523 -27 4 C-23.06316446 3.32936905 -19.12542943 2.66417499 -15.1875 2 C-14.06794922 1.80921875 -12.94839844 1.6184375 -11.79492188 1.421875 C-10.72177734 1.24140625 -9.64863281 1.0609375 -8.54296875 0.875 C-7.55321045 0.70742188 -6.56345215 0.53984375 -5.54370117 0.3671875 C-3 0 -3 0 0 0 Z " fill="#EFEFEF" transform="translate(437,259)"/>
<path d="M0 0 C0.02690104 2.79173055 0.04679053 5.58320348 0.0625 8.375 C0.07087891 9.1690625 0.07925781 9.963125 0.08789062 10.78125 C0.11328125 16.7734375 0.11328125 16.7734375 -1 19 C-4.95827235 19.05785647 -8.9164367 19.09354717 -12.875 19.125 C-14.00292969 19.14175781 -15.13085938 19.15851563 -16.29296875 19.17578125 C-17.90751953 19.18544922 -17.90751953 19.18544922 -19.5546875 19.1953125 C-21.04718018 19.21102295 -21.04718018 19.21102295 -22.56982422 19.22705078 C-25 19 -25 19 -27 17 C-27.1953125 13.7421875 -27.1953125 13.7421875 -27.125 9.875 C-27.10695313 8.59367187 -27.08890625 7.31234375 -27.0703125 5.9921875 C-27.04710937 5.00476563 -27.02390625 4.01734375 -27 3 C-22.87523047 2.4980863 -18.75014804 1.99879241 -14.625 1.5 C-13.449375 1.35691406 -12.27375 1.21382813 -11.0625 1.06640625 C-9.38027344 0.86337891 -9.38027344 0.86337891 -7.6640625 0.65625 C-6.62717285 0.53056641 -5.5902832 0.40488281 -4.52197266 0.27539062 C-2 0 -2 0 0 0 Z " fill="#EFEFEF" transform="translate(396,265)"/>
<path d="M0 0 C0.02686553 1.97909398 0.04633375 3.95828971 0.0625 5.9375 C0.07410156 7.03964844 0.08570313 8.14179688 0.09765625 9.27734375 C0 12 0 12 -1 13 C-4.79945813 13.38320261 -8.62264783 13.47012839 -12.4375 13.625 C-13.51322266 13.6765625 -14.58894531 13.728125 -15.69726562 13.78125 C-17.23737305 13.84699219 -17.23737305 13.84699219 -18.80859375 13.9140625 C-19.75532959 13.9548291 -20.70206543 13.9955957 -21.67749023 14.03759766 C-24 14 -24 14 -26 13 C-26 9.04 -26 5.08 -26 1 C-23.16681141 0.83049299 -20.33349012 0.66432466 -17.5 0.5 C-16.70851563 0.45230469 -15.91703125 0.40460938 -15.1015625 0.35546875 C-10.057819 0.06607363 -5.05202732 -0.04634887 0 0 Z " fill="#EFEFEF" transform="translate(330,271)"/>
<path d="M0 0 C4.55354868 3.06620866 6.01060748 5.69390352 7.6875 10.875 C8.08324219 12.06867188 8.47898437 13.26234375 8.88671875 14.4921875 C9.25410156 15.64976562 9.62148438 16.80734375 10 18 C10.36480469 19.04285156 10.72960937 20.08570313 11.10546875 21.16015625 C13.56598149 28.97147836 13.09506511 37.44800727 13.125 45.5625 C13.12967285 46.43656494 13.1343457 47.31062988 13.13916016 48.21118164 C13.09931424 64.56486349 13.09931424 64.56486349 10.0625 71.0625 C8.65216439 74.29409634 7.6213852 77.29000456 6.9375 80.75 C6.16330713 84.54691114 5.1384252 87.71011508 3 91 C0.8984375 91.65625 0.8984375 91.65625 -1 92 C0.03917511 86.52071304 1.49455131 81.48191606 3.4375 76.25 C7.58389777 64.66952812 9.26032171 55.03670481 9.3125 42.75 C9.31805908 41.63657227 9.32361816 40.52314453 9.3293457 39.37597656 C9.24981721 30.28117986 7.8560441 22.64923314 4.5 14.1875 C4.0771875 13.10855469 3.654375 12.02960938 3.21875 10.91796875 C2.0947739 8.0898923 2.0947739 8.0898923 0.84375 5.86328125 C0 4 0 4 0 0 Z " fill="#006531" transform="translate(805,187)"/>
<path d="M0 0 C4.24090087 2.12045044 6.50890162 8.64140474 8 13 C12.26353332 31.31732986 10.13046325 54.25218377 1.42578125 71.03515625 C0 73 0 73 -2 74 C-1.60878326 67.93614052 -0.56764248 63.33034297 2.0625 57.84765625 C4.49897088 50.44687594 4.16695894 42.28009942 4.125 34.5625 C4.12089111 33.64307617 4.11678223 32.72365234 4.11254883 31.77636719 C4.03839811 22.77303511 3.93276495 14.44990071 0.62109375 5.97265625 C0 4 0 4 0 0 Z " fill="#009D50" transform="translate(813,198)"/>
<path d="M0 0 C1.65 0 3.3 0 5 0 C6.8125 2.5 6.8125 2.5 8 5 C8.4125 4.175 8.825 3.35 9.25 2.5 C9.8275 1.675 10.405 0.85 11 0 C12.32 0 13.64 0 15 0 C15 5.28 15 10.56 15 16 C13.68 16 12.36 16 11 16 C10.67 14.68 10.34 13.36 10 12 C8.01508358 12.26676204 8.01508358 12.26676204 6 13 C5.67 13.99 5.34 14.98 5 16 C3.35 16 1.7 16 0 16 C0 10.72 0 5.44 0 0 Z " fill="#EFEFEF" transform="translate(556,302)"/>
<path d="M0 0 C1.65 0 3.3 0 5 0 C5.66 1.32 6.32 2.64 7 4 C7.33 2.68 7.66 1.36 8 0 C9.65 0 11.3 0 13 0 C13 5.28 13 10.56 13 16 C11.35 16 9.7 16 8 16 C7.67 15.01 7.34 14.02 7 13 C6.34 13 5.68 13 5 13 C5 13.99 5 14.98 5 16 C3.35 16 1.7 16 0 16 C0 10.72 0 5.44 0 0 Z " fill="#EFEFEF" transform="translate(174,302)"/>
<path d="M0 0 C0.5625 1.9375 0.5625 1.9375 1 4 C-0.96822886 5.96822886 -4.34808709 5.66248381 -7 6 C-7.33 7.65 -7.66 9.3 -8 11 C-7.34 11 -6.68 11 -6 11 C-6 9.35 -6 7.7 -6 6 C-3.69 6 -1.38 6 1 6 C1 9.3 1 12.6 1 16 C-6.24903581 17.35151515 -6.24903581 17.35151515 -9.9375 15.625 C-12 14 -12 14 -13 13 C-13.36861157 8.57666112 -13.48648054 6.01526373 -11.5625 2 C-7.84198173 -0.90381914 -4.55500448 -0.4379812 0 0 Z " fill="#EFEFEF" transform="translate(123,302)"/>
<path d="M0 0 C2.10358381 1.54262813 2.84054159 2.68108317 4 5 C4.35555556 12.46666667 4.35555556 12.46666667 2 16 C-1.97680203 17.05047601 -4.11940077 17.42115615 -7.875 15.625 C-10 14 -10 14 -11 13 C-11.52829961 8.7302999 -11.70979336 5.16406111 -9.4375 1.4375 C-6.08477323 -0.53974912 -3.82540234 -0.48686939 0 0 Z M-5 5 C-6.29633621 6.06645115 -6.29633621 6.06645115 -6.0625 8.5625 C-6.041875 9.366875 -6.02125 10.17125 -6 11 C-4.05396726 11.59070014 -4.05396726 11.59070014 -2 12 C-0.70366379 10.93354885 -0.70366379 10.93354885 -0.9375 8.4375 C-0.958125 7.633125 -0.97875 6.82875 -1 6 C-2.94603274 5.40929986 -2.94603274 5.40929986 -5 5 Z " fill="#EFEFEF" transform="translate(601,302)"/>
<path d="M0 0 C8.10596026 -0.35761589 8.10596026 -0.35761589 11.5 1 C13.76416189 4.01888252 14.20256387 7.31333762 14 11 C13.34 12.65 12.68 14.3 12 16 C8.04 16 4.08 16 0 16 C0 10.72 0 5.44 0 0 Z M5 5 C5 7.31 5 9.62 5 12 C6.32 11.34 7.64 10.68 9 10 C8.73323796 8.01508358 8.73323796 8.01508358 8 6 C7.01 5.67 6.02 5.34 5 5 Z " fill="#EFEFEF" transform="translate(319,302)"/>
<path d="M0 0 C5.75 0.75 5.75 0.75 8 3 C8.1875 5.5625 8.1875 5.5625 8 8 C7.67 8.33 7.34 8.66 7 9 C6.79822601 12.63193179 7.26817516 15.34087582 8 19 C4.37 19 0.74 19 -3 19 C-3 13.72 -3 8.44 -3 3 C-2.34 3 -1.68 3 -1 3 C-0.67 2.01 -0.34 1.02 0 0 Z " fill="#EFEFEF" transform="translate(147,299)"/>
<path d="M0 0 C8.625 -0.25 8.625 -0.25 12 2 C12.2578125 4.2421875 12.2578125 4.2421875 12.125 6.875 C11.97792888 10.15958829 12.04520873 12.84184427 13 16 C10.125 16.1875 10.125 16.1875 7 16 C6.34 15.01 5.68 14.02 5 13 C4.67 13.99 4.34 14.98 4 16 C2.68 16 1.36 16 0 16 C0 10.72 0 5.44 0 0 Z M4 5 C4 5.99 4 6.98 4 8 C4.99 8 5.98 8 7 8 C7 7.01 7 6.02 7 5 C6.01 5 5.02 5 4 5 Z " fill="#EFEFEF" transform="translate(469,302)"/>
<path d="M0 0 C1.65 0 3.3 0 5 0 C5.04898437 0.78246094 5.09796875 1.56492187 5.1484375 2.37109375 C5.22320312 3.38300781 5.29796875 4.39492188 5.375 5.4375 C5.47941406 6.95150391 5.47941406 6.95150391 5.5859375 8.49609375 C5.72257812 9.32238281 5.85921875 10.14867187 6 11 C6.66 11.33 7.32 11.66 8 12 C8.33 8.04 8.66 4.08 9 0 C10.32 0 11.64 0 13 0 C13.02692484 2.29160319 13.04636124 4.58329546 13.0625 6.875 C13.07410156 8.15117187 13.08570313 9.42734375 13.09765625 10.7421875 C13 14 13 14 12 16 C4.82105263 17.27368421 4.82105263 17.27368421 1 16 C-0.14077657 12.57767028 -0.09815117 9.91326783 -0.0625 6.3125 C-0.05347656 5.13300781 -0.04445313 3.95351563 -0.03515625 2.73828125 C-0.02355469 1.83464844 -0.01195312 0.93101562 0 0 Z " fill="#EFEFEF" transform="translate(436,302)"/>
<path d="M0 0 C1.91015625 0.1328125 1.91015625 0.1328125 3.91015625 1.1328125 C3.59765625 3.0703125 3.59765625 3.0703125 2.91015625 5.1328125 C1.92015625 5.4628125 0.93015625 5.7928125 -0.08984375 6.1328125 C0.57015625 6.5040625 1.23015625 6.8753125 1.91015625 7.2578125 C3.91015625 9.1328125 3.91015625 9.1328125 4.16015625 12.3203125 C4.07765625 13.2484375 3.99515625 14.1765625 3.91015625 15.1328125 C-0.08544983 17.96303347 -3.51721698 16.89491696 -8.08984375 16.1328125 C-8.08984375 14.8128125 -8.08984375 13.4928125 -8.08984375 12.1328125 C-6.76984375 11.8028125 -5.44984375 11.4728125 -4.08984375 11.1328125 C-5.40984375 10.1428125 -6.72984375 9.1528125 -8.08984375 8.1328125 C-7.05801912 0.02561894 -7.05801912 0.02561894 0 0 Z " fill="#EFEFEF" transform="translate(533.08984375,301.8671875)"/>
<path d="M0 0 C3.63 0 7.26 0 11 0 C11 1.65 11 3.3 11 5 C10.67 5.33 10.34 5.66 10 6 C9.79822601 9.63193179 10.26817516 12.34087582 11 16 C7.37 16 3.74 16 0 16 C0 10.72 0 5.44 0 0 Z " fill="#EFEFEF" transform="translate(352,302)"/>
<path d="M0 0 C2.375 -0.1875 2.375 -0.1875 5 0 C6.73546076 2.60319113 7.65175233 4.52267237 8.625 7.4375 C8.88539062 8.19933594 9.14578125 8.96117187 9.4140625 9.74609375 C10 12 10 12 10 16 C8.35 16 6.7 16 5 16 C5 15.01 5 14.02 5 13 C3.68 13 2.36 13 1 13 C0.67 13.99 0.34 14.98 0 16 C-1.65 16 -3.3 16 -5 16 C-3.71291613 10.45563871 -2.08135307 5.29798964 0 0 Z " fill="#EFEFEF" transform="translate(83,302)"/>
<path d="M0 0 C2.375 -0.1875 2.375 -0.1875 5 0 C6.73546076 2.60319113 7.65175233 4.52267237 8.625 7.4375 C8.88539063 8.19933594 9.14578125 8.96117187 9.4140625 9.74609375 C10 12 10 12 10 16 C8.35 16 6.7 16 5 16 C5 15.01 5 14.02 5 13 C3.68 13 2.36 13 1 13 C0.67 13.99 0.34 14.98 0 16 C-1.65 16 -3.3 16 -5 16 C-3.41078475 10.63904723 -1.81027062 5.29156027 0 0 Z " fill="#EFEFEF" transform="translate(266,302)"/>
<path d="M0 0 C3.5 0.1875 3.5 0.1875 5.5 1.1875 C5.17 2.5075 4.84 3.8275 4.5 5.1875 C2.52 5.1875 0.54 5.1875 -1.5 5.1875 C-1.5 7.4975 -1.5 9.8075 -1.5 12.1875 C0.48 12.1875 2.46 12.1875 4.5 12.1875 C4.83 13.5075 5.16 14.8275 5.5 16.1875 C-1.53703704 17.36033951 -1.53703704 17.36033951 -4.9375 16.75 C-7.14193563 14.54556437 -7.30681009 12.2487823 -7.54296875 9.22265625 C-7.42975648 3.86051126 -5.50805142 0.29507418 0 0 Z " fill="#EFEFEF" transform="translate(213.5,301.8125)"/>
<path d="M0 0 C3.2773006 1.6386503 4.60432338 4.74995528 6 8 C6.43762072 10.80806631 6.69363827 13.25704609 6.75 16.0625 C6.77819824 16.80346924 6.80639648 17.54443848 6.83544922 18.30786133 C6.91243046 20.53864374 6.96059869 22.76826911 7 25 C7.02835938 26.22976562 7.05671875 27.45953125 7.0859375 28.7265625 C7.17669004 36.76723755 7.23500137 45.04239685 6 53 C5.01 53.495 5.01 53.495 4 54 C4.00523682 53.14881592 4.01047363 52.29763184 4.01586914 51.4206543 C4.03309062 48.2093939 4.0455364 44.99815735 4.05493164 41.78686523 C4.05990624 40.40697446 4.06668832 39.02708879 4.07543945 37.6472168 C4.37157361 21.50451077 4.37157361 21.50451077 0.62109375 5.97265625 C0 4 0 4 0 0 Z " fill="#008542" transform="translate(813,198)"/>
<path d="M0 0 C3.96 0 7.92 0 12 0 C12 1.65 12 3.3 12 5 C11.01 5 10.02 5 9 5 C9 8.63 9 12.26 9 16 C7.68 16 6.36 16 5 16 C5 12.37 5 8.74 5 5 C3.35 5 1.7 5 0 5 C0 3.35 0 1.7 0 0 Z " fill="#EFEFEF" transform="translate(405,302)"/>
<path d="M0 0 C1.65 0 3.3 0 5 0 C5 5.28 5 10.56 5 16 C3.35 16 1.7 16 0 16 C0 10.72 0 5.44 0 0 Z " fill="#EFEFEF" transform="translate(501,302)"/>
<path d="M0 0 C1.32 0 2.64 0 4 0 C4 5.28 4 10.56 4 16 C2.68 16 1.36 16 0 16 C0 10.72 0 5.44 0 0 Z " fill="#EFEFEF" transform="translate(238,302)"/>
<path d="M0 0 C1.5 1.3125 1.5 1.3125 3 3 C3 3.99 3 4.98 3 6 C3.66 6 4.32 6 5 6 C8.44935617 10.27720165 8.6663273 14.71876659 9 20 C8.34 19.67 7.68 19.34 7 19 C6.731875 18.05125 6.46375 17.1025 6.1875 16.125 C5.33091855 12.78657709 5.33091855 12.78657709 2.375 11.75 C1.59125 11.1725 0.8075 10.595 0 10 C-0.45438554 6.63316736 -0.28517232 3.37770766 0 0 Z " fill="#008241" transform="translate(804,178)"/>
<path d="M0 0 C1 2 1 2 0.375 5.5 C-1 9 -1 9 -3.625 10.4375 C-4.40875 10.623125 -5.1925 10.80875 -6 11 C-6 9.68 -6 8.36 -6 7 C-5.38125 6.95875 -4.7625 6.9175 -4.125 6.875 C-3.42375 6.58625 -2.7225 6.2975 -2 6 C-0.6954344 3.00384054 -0.6954344 3.00384054 0 0 Z " fill="#00974C" transform="translate(810,272)"/>
<path d="M0 0 C0.66 0 1.32 0 2 0 C3.85776765 3.13498292 4.20140476 5.37471432 4 9 C4.66 9 5.32 9 6 9 C6.33 10.65 6.66 12.3 7 14 C2.95510987 10.65250472 1.40885839 6.93100435 0 2 C0 1.34 0 0.68 0 0 Z " fill="#00A252" transform="translate(812,192)"/>
<path d="M0 0 C1.37095624 3.69037278 0.60010967 5.70883835 -0.9375 9.25 C-1.31777344 10.14203125 -1.69804688 11.0340625 -2.08984375 11.953125 C-2.39019531 12.62859375 -2.69054687 13.3040625 -3 14 C-3.33 14 -3.66 14 -4 14 C-4.33 11.69 -4.66 9.38 -5 7 C-4.34 7 -3.68 7 -3 7 C-2.01 4.69 -1.02 2.38 0 0 Z " fill="#007138" transform="translate(816,249)"/>
<path d="M0 0 C1.5 1.3125 1.5 1.3125 3 3 C3 3.99 3 4.98 3 6 C3.66 6 4.32 6 5 6 C6.6875 8.375 6.6875 8.375 8 11 C7.67 11.66 7.34 12.32 7 13 C5.76302083 11.47005208 4.52604167 9.94010417 3.2890625 8.41015625 C2.0333609 6.86733563 2.0333609 6.86733563 0 6 C0 4.02 0 2.04 0 0 Z " fill="#009C4F" transform="translate(804,178)"/>
</svg>
