<?xml version="1.0" encoding="UTF-8"?>
<svg version="1.1" xmlns="http://www.w3.org/2000/svg" width="1080" height="1080">
<path d="M0 0 C0.98709457 -0.00696899 1.97418915 -0.01393799 2.99119568 -0.02111816 C6.17906993 -0.0384747 9.36676789 -0.0448437 12.5546875 -0.046875 C14.19206375 -0.04838562 14.19206375 -0.04838562 15.86251831 -0.04992676 C34.23015345 -0.03848914 52.21248314 0.73892398 70.4296875 3.203125 C72.04786377 3.4199292 72.04786377 3.4199292 73.69873047 3.64111328 C105.22683154 8.03393465 135.83537116 17.18252005 164.4296875 31.203125 C165.08936523 31.52603516 165.74904297 31.84894531 166.42871094 32.18164062 C186.08260162 41.94290458 204.07289469 54.31540999 220.20703125 69.1640625 C222.22530853 71.01562795 224.28317885 72.801455 226.3671875 74.578125 C234.35477085 81.56726043 241.58708743 89.10099649 248.19140625 97.40625 C250.50057882 100.29170822 252.89812084 103.08612212 255.3046875 105.890625 C261.21561156 112.96163696 266.32047812 120.54242251 271.4296875 128.203125 C272.09871094 129.19957031 272.76773438 130.19601562 273.45703125 131.22265625 C274.78825562 133.21166207 276.11363769 135.204062 277.4296875 137.203125 C278.24202625 132.259602 278.55680443 127.49974672 278.49560547 122.48632812 C278.49093262 121.74862183 278.48625977 121.01091553 278.48144531 120.25085449 C278.47100063 118.65929144 278.4583577 117.06774157 278.44372177 115.47621155 C278.42151012 112.94275686 278.40755136 110.40937916 278.39602661 107.87585449 C278.36263066 100.67559362 278.32127703 93.47545826 278.25830078 86.27539062 C278.22025744 81.85823393 278.19750899 77.44120727 278.18399429 73.02391052 C278.17603479 71.3560372 278.16256471 69.6881793 278.14306259 68.020401 C277.91502726 48.16006393 280.68469831 30.51052464 294.4296875 15.203125 C307.10687001 3.56474045 323.2208342 -0.20448151 339.9921875 -0.109375 C341.56709961 -0.10091553 341.56709961 -0.10091553 343.17382812 -0.09228516 C369.6519364 0.31612794 391.60600921 9.43254595 410.4296875 28.203125 C411.59951172 29.33814453 411.59951172 29.33814453 412.79296875 30.49609375 C420.14441208 38.08257434 425.14517231 47.13694571 430.4296875 56.203125 C431.77061642 58.49491897 433.11176895 60.78658109 434.453125 63.078125 C435.17004159 64.30320023 435.88691932 65.52829819 436.60375977 66.75341797 C437.14626877 67.68054596 437.14626877 67.68054596 437.69973755 68.62640381 C438.43880457 69.89004573 439.17746983 71.15392271 439.91574097 72.41802979 C446.02354765 82.8752818 452.30949463 93.20729613 458.73144531 103.47460938 C461.2805899 107.57024478 463.79766124 111.68540131 466.31835938 115.79858398 C472.52688107 125.92590208 478.80695945 136.00099154 485.20629883 146.00878906 C489.53161651 152.77650181 493.80410611 159.57574603 498.0546875 166.390625 C502.55810634 173.61007088 507.07050737 180.82333133 511.6171875 188.015625 C512.10364746 188.78535645 512.59010742 189.55508789 513.09130859 190.34814453 C515.48288104 194.13033354 517.87824061 197.91008375 520.27734375 201.6875 C528.08623266 213.99658349 535.7325154 226.40283348 543.35644531 238.82714844 C545.4064575 242.1652983 547.46028665 245.50106478 549.515625 248.8359375 C555.84671767 259.10907449 562.16309646 269.39049389 568.4296875 279.703125 C583.53301311 304.55185048 598.66231925 329.40521865 614.57348633 353.74731445 C620.3786596 362.6323827 626.06409807 371.59287541 631.74902344 380.55517578 C634.63824303 385.10724953 637.53413802 389.65507596 640.4296875 394.203125 C641.76696973 391.52856053 641.55579689 389.49259387 641.55717945 386.49602795 C641.5601871 385.27390769 641.56319475 384.05178744 641.56629354 382.79263324 C641.56460574 381.42402651 641.56283467 380.05541988 641.56098938 378.68681335 C641.56269043 377.24242194 641.56483961 375.798031 641.56740063 374.35364085 C641.57200871 371.20359717 641.57341635 368.05357317 641.57243538 364.90352631 C641.57084638 359.77849552 641.5760368 354.65348434 641.58206177 349.52845764 C641.59018534 342.08565464 641.59512237 334.64285507 641.59835243 327.20004845 C641.60384526 315.43037343 641.62074024 303.66072747 641.63969421 291.8910675 C641.64605157 287.86514955 641.65235997 283.83923151 641.65867138 279.81331348 C641.66025514 278.80705184 641.6618389 277.8007902 641.66347066 276.76403579 C641.68141871 265.30127009 641.69763802 253.83850233 641.71264648 242.37573242 C641.71402236 241.32757706 641.71539823 240.2794217 641.71681579 239.19950406 C641.73872101 222.233783 641.74949543 205.2680694 641.75701723 188.30233672 C641.76509602 170.88303604 641.78841382 153.4637992 641.8249709 136.04453498 C641.84697057 125.30223229 641.85666828 114.56006097 641.85047057 103.8177369 C641.84728929 96.44772576 641.85867017 89.07782652 641.88136498 81.70785 C641.89399892 77.45916159 641.90024389 73.21072256 641.88894844 68.96202469 C641.87872125 65.0648707 641.88714918 61.16819909 641.9098114 57.27110169 C641.91477336 55.86852424 641.91314021 54.46590284 641.90387873 53.06334718 C641.82043468 39.33657523 644.60943461 27.0341252 653.4296875 16.203125 C664.9799271 4.67259571 680.37579096 -0.1011976 696.42602539 -0.26489258 C697.56160889 -0.25482178 698.69719238 -0.24475098 699.8671875 -0.234375 C701.05497803 -0.22752686 702.24276855 -0.22067871 703.46655273 -0.21362305 C711.81248509 -0.06033393 718.78290751 0.66402349 726.4296875 4.203125 C727.31011719 4.56535156 728.19054688 4.92757812 729.09765625 5.30078125 C741.48764512 10.83035268 749.59880918 20.60941109 754.49828339 33.11087418 C757.46823807 42.22466193 756.98278551 51.49645225 756.93762207 60.97601318 C756.9422354 63.08686892 756.94859121 65.19772144 756.95653105 67.30856729 C756.97318853 73.0882591 756.96499408 78.86768583 756.95258617 84.64737844 C756.94352319 90.8888587 756.95751178 97.13029388 756.96850586 103.37176514 C756.98525677 114.88597748 756.98381602 126.40007204 756.97285999 137.91428375 C756.96278546 148.55480587 756.96017666 159.19529715 756.96495056 169.83582306 C756.96540887 170.89581708 756.96540887 170.89581708 756.96587644 171.97722512 C756.96712187 174.84606654 756.96839548 177.71490795 756.9697155 180.58374934 C756.98194489 207.48323238 756.97086911 234.38266189 756.94932791 261.28213667 C756.93035448 285.1565443 756.93203784 309.03086656 756.95117188 332.90527344 C756.97261512 359.75048896 756.98106925 386.59565716 756.96872282 413.44088006 C756.96744003 416.30564132 756.96618867 419.1704026 756.96495056 422.03516388 C756.96463425 422.74050015 756.96431794 423.44583643 756.96399205 424.17254653 C756.95945153 434.80101562 756.96474592 445.4294504 756.97486877 456.05791473 C756.9863304 468.15205008 756.98301163 480.2460628 756.9617458 492.34019443 C756.95125822 498.50722954 756.94707447 504.6740918 756.96034241 510.84112549 C756.9723199 516.49402973 756.96561552 522.146602 756.9444322 527.79947641 C756.9399887 529.83707066 756.94218127 531.87469334 756.95193535 533.91226909 C757.02921693 551.40730644 755.66622222 570.07428289 743.140625 583.6171875 C727.68264713 597.94581539 706.68423873 599.80124107 686.64404297 599.29199219 C665.29768027 598.43531346 646.27371075 590.45278113 630.4296875 576.203125 C629.73359375 575.58953125 629.0375 574.9759375 628.3203125 574.34375 C619.25219224 565.85598944 612.75494799 555.03537552 606.59545898 544.35668945 C602.72288148 537.64712923 598.68549355 531.04557655 594.6171875 524.453125 C593.58259399 522.77645752 593.58259399 522.77645752 592.52709961 521.06591797 C590.49604034 517.77744556 588.46296634 514.49022534 586.4296875 511.203125 C585.29934649 509.37247775 584.16912967 507.54175381 583.0390625 505.7109375 C575.51537893 493.53044627 567.93156966 481.38779428 560.33691406 469.25146484 C556.5744881 463.23794071 552.81570858 457.22213593 549.05737305 451.20605469 C545.92384897 446.19078306 542.78730596 441.17744956 539.64453125 436.16796875 C518.09398973 401.79720442 518.09398973 401.79720442 510.3046875 387.953125 C505.86108612 380.08052889 500.97672637 372.49763924 496.12304688 364.87353516 C493.09752716 360.10232197 490.10847079 355.30834883 487.1171875 350.515625 C486.4873999 349.50709473 485.8576123 348.49856445 485.20874023 347.45947266 C483.92335824 345.40096904 482.63812128 343.34237486 481.35302734 341.28369141 C478.21379528 336.25566016 475.07165303 331.22944842 471.9296875 326.203125 C468.14303197 320.14546612 464.35707753 314.08737453 460.57421875 308.02734375 C454.87946755 298.90648207 449.17921229 289.78958329 443.4296875 280.703125 C438.96968383 273.65460555 434.5372228 266.58927388 430.1171875 259.515625 C429.48973633 258.51354004 428.86228516 257.51145508 428.21582031 256.47900391 C424.96194333 251.27794454 421.72825375 246.06587583 418.52734375 240.83203125 C417.8825708 239.78426514 417.23779785 238.73649902 416.57348633 237.65698242 C415.36446335 235.6914044 414.16180845 233.7218855 412.9675293 231.74731445 C409.52273215 226.16470659 405.76831594 220.96980337 401.69042969 215.84228516 C400.92936417 214.87975578 400.92936417 214.87975578 400.15292358 213.89778137 C398.91385527 212.33130362 397.67205315 210.76698894 396.4296875 209.203125 C396.42909041 209.9501173 396.42849332 210.69710961 396.42787814 211.46673805 C396.39197602 255.74990651 396.33532447 300.03300683 396.25176655 344.31611233 C396.24174922 349.63448802 396.23190507 354.95286402 396.22216797 360.27124023 C396.2202266 361.33002306 396.21828522 362.38880589 396.21628502 363.47967305 C396.18527282 380.6182336 396.16828654 397.75678076 396.15649328 414.89536408 C396.14407769 432.48409839 396.11656703 450.07276249 396.07507443 467.66145247 C396.04995078 478.51263909 396.0365694 489.36370926 396.03825793 500.21492537 C396.03828771 507.6583004 396.02364107 515.1015569 395.99752322 522.54488573 C395.98289085 526.83786247 395.97466267 531.13059614 395.98388481 535.42359352 C395.99219547 539.35897162 395.98195234 543.29386219 395.95735088 547.22916814 C395.95168534 548.64791707 395.95265457 550.06671249 395.96117505 551.48544715 C396.02188124 562.54699968 394.48989138 572.32744012 387.4296875 581.203125 C386.99527344 581.75355469 386.56085937 582.30398438 386.11328125 582.87109375 C376.57418882 593.70119117 360.56077867 598.32893551 346.58837891 599.42626953 C326.67919949 600.45510936 304.83506497 597.91339838 289.3046875 583.953125 C283.85685644 577.75980127 279.3292676 568.81575852 279.27819824 560.51689148 C279.26985458 559.55381073 279.26151093 558.59072998 279.25291443 557.59846497 C279.24873001 556.54334213 279.24454559 555.4882193 279.24023438 554.40112305 C279.23194107 553.28866211 279.22364777 552.17620117 279.21510315 551.0300293 C279.19768798 548.61063252 279.18252519 546.19121873 279.16932678 543.77179527 C279.14831819 539.94309951 279.12129219 536.11448867 279.09265137 532.2858429 C279.03291057 524.15413527 278.98075936 516.02239052 278.9296875 507.890625 C278.8705239 498.47921139 278.80810789 489.06784265 278.73780823 479.65650368 C278.71124972 475.88419044 278.69042288 472.111873 278.6697998 468.33952332 C278.65319277 466.02411704 278.63632057 463.70871264 278.61914062 461.39331055 C278.61495621 460.34426041 278.61077179 459.29521027 278.60646057 458.21437073 C278.56542353 453.43599447 278.42642503 448.90058399 277.4296875 444.203125 C275.19482015 447.01585525 273.36546429 449.96357035 271.57617188 453.07543945 C264.49069573 465.34895229 256.09371829 476.67920535 246.4296875 487.05078125 C244.58887031 489.03181694 242.85244107 491.06749754 241.1171875 493.140625 C179.59633099 563.20993765 71.56861383 584.1269722 -16.52490234 593.74536133 C-17.33434296 593.83408005 -18.14378357 593.92279877 -18.97775269 594.01420593 C-20.50857477 594.18137914 -22.03958926 594.34680425 -23.5708313 594.51008606 C-28.62008448 595.05915049 -33.59398297 595.84892443 -38.59292603 596.73483276 C-66.9111868 601.18881339 -96.84668121 599.42063002 -125.41113281 599.44335938 C-130.05411829 599.44770064 -134.69691339 599.46144776 -139.33984375 599.484375 C-189.06029595 599.72452967 -240.78697245 599.80420016 -289.890625 590.828125 C-291.06125488 590.61414063 -292.23188477 590.40015625 -293.43798828 590.1796875 C-296.99065157 589.07207619 -298.94636565 587.83113459 -301.5703125 585.203125 C-303.51435885 581.32275369 -303.82295268 578.13020598 -303.82910156 573.81835938 C-303.83540588 572.54512817 -303.84171021 571.27189697 -303.84820557 569.96008301 C-303.84461938 568.57234561 -303.84051584 567.18460948 -303.8359375 565.796875 C-303.83728792 564.35217219 -303.83923158 562.90746983 -303.84173584 561.46276855 C-303.84468443 558.42646989 -303.84040809 555.39028886 -303.83105469 552.35400391 C-303.81982118 548.52708762 -303.82630598 544.70045435 -303.83793831 540.87354851 C-303.87568155 526.24528492 -303.73160757 511.77993018 -302.09179688 497.22558594 C-301.45993181 491.51861021 -301.15270611 485.80327781 -300.859375 480.0703125 C-300.80544586 479.02623734 -300.75151672 477.98216217 -300.69595337 476.90644836 C-300.58543314 474.74676469 -300.47571685 472.58703974 -300.36676025 470.42727661 C-297.22196586 408.99519042 -290.22027182 348.02644045 -275.5703125 288.203125 C-275.27576172 286.99495117 -274.98121094 285.78677734 -274.67773438 284.54199219 C-259.71914595 224.01301722 -236.39192046 161.8607311 -199.5703125 111.203125 C-199.09384277 110.53877441 -198.61737305 109.87442383 -198.12646484 109.18994141 C-191.97482546 100.63439944 -185.4957375 92.64160536 -178.2265625 85.01171875 C-176.1471615 82.81305798 -174.18659242 80.59295383 -172.2578125 78.265625 C-131.30577785 31.29413465 -61.98797422 0.29628267 0 0 Z M-102.13671875 231.46875 C-141.32605367 275.50171059 -153.31868133 334.31708679 -160.53662109 391.07446289 C-161.29873965 396.85933215 -162.45259808 402.38462959 -164.21484375 407.9609375 C-164.66150876 410.77836294 -163.87010328 411.7157556 -162.5703125 414.203125 C-162.33984375 417.0859375 -162.33984375 417.0859375 -162.3828125 420.328125 C-162.38925781 421.38257813 -162.39570313 422.43703125 -162.40234375 423.5234375 C-162.5287483 426.29257903 -162.75388239 428.95926023 -163.06640625 431.70703125 C-163.77382219 438.46806163 -163.79288235 445.22323336 -163.8203125 452.015625 C-163.8409375 453.31177734 -163.8615625 454.60792969 -163.8828125 455.94335938 C-163.88796875 457.19052734 -163.893125 458.43769531 -163.8984375 459.72265625 C-163.9077832 460.84776611 -163.91712891 461.97287598 -163.92675781 463.13208008 C-163.52428056 466.59972488 -162.66909088 468.4357174 -160.5703125 471.203125 C-155.11389586 474.29925963 -149.87973126 474.85877179 -143.6953125 475.328125 C-142.45394531 475.43833984 -142.45394531 475.43833984 -141.1875 475.55078125 C-138.31665962 475.79574817 -135.44450054 476.00122015 -132.5703125 476.203125 C-131.42731689 476.29215088 -130.28432129 476.38117676 -129.10668945 476.47290039 C-116.21210188 477.37263497 -103.32035908 477.38924149 -90.39868164 477.38842773 C-86.53976277 477.39060696 -82.68113396 477.4088051 -78.82226562 477.42773438 C-54.27427787 477.66871678 -54.27427787 477.66871678 -29.96104431 474.6783905 C-27.12227065 474.11405653 -24.46310647 474.07074542 -21.5703125 474.078125 C-20.5596875 474.07554687 -19.5490625 474.07296875 -18.5078125 474.0703125 C-15.5703125 474.203125 -15.5703125 474.203125 -13.23828125 474.8671875 C-9.13229212 475.38419345 -5.76501868 473.98331218 -1.8828125 472.703125 C5.14246465 470.47963661 12.18314404 468.4385887 19.31420898 466.58032227 C53.02322679 457.79421411 88.12402949 442.93831869 107.4296875 412.203125 C111.03100351 405.95338778 114.32792162 399.53832418 117.47412109 393.04882812 C118.89227636 390.14124 120.17496414 387.52649318 122.18359375 384.9765625 C123.77995752 382.70462158 123.6236191 381.56028718 123.3671875 378.828125 C123.22836265 374.47407274 123.91966583 371.0996779 125.2421875 366.953125 C136.00207967 331.68671684 130.83272796 292.87635041 113.76464844 260.59326172 C108.29720112 250.80425126 101.1749811 242.27330507 93.4296875 234.203125 C92.59953125 233.30980469 91.769375 232.41648437 90.9140625 231.49609375 C81.15397649 221.29366466 70.42587843 213.7060669 57.5859375 207.87109375 C54.4296875 206.203125 54.4296875 206.203125 51.5234375 203.50390625 C48.15428729 200.99831348 46.7865128 200.93757177 42.71484375 201.20605469 C37.99548965 201.20000423 33.45143625 199.56553542 28.9296875 198.328125 C-18.46594291 186.0344023 -67.34578316 195.49951178 -102.13671875 231.46875 Z " fill="#00B65E" transform="translate(313.5703125,184.796875)"/>
<path d="M0 0 C14.43129098 14.35853316 25.03220821 31.81150069 34 50 C34.56750977 51.13187744 34.56750977 51.13187744 35.14648438 52.28662109 C50.22888254 82.67607473 59.04712835 116.37883203 63 150 C63.0942627 150.74113037 63.18852539 151.48226074 63.28564453 152.24584961 C64.39776572 162.30567214 64.24390647 172.45457017 64.25 182.5625 C64.25067474 183.56721344 64.25134949 184.57192688 64.25204468 185.60708618 C64.23534006 201.28179709 63.62516396 216.51515001 61 232 C60.83371094 233.02367676 60.66742187 234.04735352 60.49609375 235.10205078 C52.57434202 282.91862445 36.28305813 349.0692198 1 385 C0.67 385 0.34 385 0 385 C-0.03758423 383.54146606 -0.03758423 383.54146606 -0.07592773 382.0534668 C-0.17115323 378.39483755 -0.27107716 374.73634828 -0.37231445 371.07788086 C-0.41523351 369.50402128 -0.456932 367.93012787 -0.49731445 366.35620117 C-0.55607737 364.07460405 -0.61960266 361.79317451 -0.68359375 359.51171875 C-0.70157516 358.76333237 -0.71955658 358.01494598 -0.73808289 357.24388123 C-0.85499751 353.17954412 -1.23500968 349.31608195 -1.890625 345.296875 C-2.53549056 338.78970729 0.18401075 333.35232242 2.79541016 327.55136108 C4.35357218 324.07753181 5.82209735 320.56617466 7.29296875 317.0546875 C7.60100433 316.3221727 7.90903992 315.5896579 8.22640991 314.83494568 C19.20791928 288.41500012 27.0779115 260.72817198 31.59765625 232.50976562 C31.93995049 230.37458068 32.29658041 228.24170187 32.65625 226.109375 C34.89335835 212.48933298 35.18646735 198.97842005 35.18530273 185.20922852 C35.18748271 182.33529693 35.20568459 179.4617544 35.22460938 176.58789062 C35.25966888 164.90749374 34.52486507 153.57511214 33 142 C32.72726225 139.54187722 32.4561209 137.08357607 32.1875 134.625 C28.18374957 105.54349497 16.37621647 77.91657191 3.94873047 51.58007812 C3.45131348 50.52240234 2.95389648 49.46472656 2.44140625 48.375 C1.99482666 47.43398438 1.54824707 46.49296875 1.08813477 45.5234375 C-0.46560935 41.92022924 -1.13627483 38.88584978 -1.02172852 34.96582031 C-1.00163223 34.18531311 -0.98153595 33.40480591 -0.96083069 32.60064697 C-0.93379562 31.76821472 -0.90676056 30.93578247 -0.87890625 30.078125 C-0.85529526 29.21813904 -0.83168427 28.35815308 -0.80735779 27.47210693 C-0.73091789 24.73122845 -0.64680911 21.99064661 -0.5625 19.25 C-0.50925961 17.38933733 -0.45651935 15.52866027 -0.40429688 13.66796875 C-0.27532941 9.11179209 -0.13948466 4.55586632 0 0 Z " fill="#00A051" transform="translate(593,284)"/>
<path d="M0 0 C4.3587914 4.01008809 7.47852915 8.37185131 10.625 13.375 C11.1420752 14.19645508 11.65915039 15.01791016 12.19189453 15.86425781 C22.64844532 32.88359056 31.1930263 51.86924775 37 71 C37.44085937 72.40958984 37.44085937 72.40958984 37.890625 73.84765625 C43.53864012 92.65196057 46.80451857 111.64269166 48.71777344 131.16357422 C48.89428148 132.93751059 49.08304071 134.71031957 49.29003906 136.48095703 C53.09620352 169.87015959 51.23069024 212.64696738 38 244 C36.87058263 247.77379619 35.84401075 251.57261494 34.81640625 255.375 C34.61080078 256.13296875 34.40519531 256.8909375 34.19335938 257.671875 C33.7730525 259.22297652 33.35637895 260.77506717 32.94335938 262.328125 C31.84567057 266.34956434 30.60515624 270.13709652 28.88696289 273.94726562 C27.72765721 276.63029402 26.71169651 279.35928626 25.6796875 282.09375 C23.04057761 288.99451902 20.13020681 295.75187412 17.125 302.5 C16.63386719 303.62019531 16.14273438 304.74039062 15.63671875 305.89453125 C5.6294815 328.43030969 5.6294815 328.43030969 0 332 C-0.36912662 330.16962007 -0.71948834 328.33545312 -1.0625 326.5 C-1.25972656 325.4790625 -1.45695313 324.458125 -1.66015625 323.40625 C-2.45100382 315.47959394 -0.32195046 309.80149087 2.9375 302.75 C23.01920308 257.5204632 35.18949406 209.76329636 35.18530273 160.20922852 C35.18748271 157.33529693 35.20568459 154.4617544 35.22460938 151.58789062 C35.25966888 139.90749374 34.52486507 128.57511214 33 117 C32.72726225 114.54187722 32.4561209 112.08357607 32.1875 109.625 C28.18374957 80.54349497 16.37621647 52.91657191 3.94873047 26.58007812 C3.45131348 25.52240234 2.95389648 24.46472656 2.44140625 23.375 C1.99482666 22.43398438 1.54824707 21.49296875 1.08813477 20.5234375 C-1.81537234 13.79006316 -1.4167187 7.08359351 0 0 Z " fill="#006D36" transform="translate(593,309)"/>
<path d="M0 0 C3.24884582 0.93460895 4.72677308 1.61939942 6.72583008 4.40405273 C7.23525146 5.40380127 7.74467285 6.4035498 8.26953125 7.43359375 C9.13203491 9.10578979 9.13203491 9.10578979 10.01196289 10.81176758 C10.61310299 12.01986731 11.21326216 13.22845558 11.8125 14.4375 C12.4362589 15.6704235 13.06052989 16.90308804 13.68530273 18.13549805 C18.59759341 27.89732018 23.0770351 37.79930186 27 48 C27.46664062 49.20140625 27.93328125 50.4028125 28.4140625 51.640625 C43.26352581 91.54286383 50.10372149 137.74881641 43 180 C42.79036621 181.25490234 42.58073242 182.50980469 42.36474609 183.80273438 C35.07443059 227.09328936 35.07443059 227.09328936 29 246 C28.69852051 246.94246582 28.39704102 247.88493164 28.08642578 248.85595703 C21.36256091 269.62522854 13.72789086 291.44493462 2 310 C1.34 310.33 0.68 310.66 0 311 C-1.11543927 305.64310609 -0.87474181 302.5737503 1.32421875 297.58203125 C1.85807679 296.33292809 2.39193076 295.08382319 2.92578125 293.8347168 C3.21275879 293.18078949 3.49973633 292.52686218 3.79541016 291.8531189 C5.34017833 288.31952511 6.81948091 284.75911243 8.29296875 281.1953125 C8.75502213 280.07798988 8.75502213 280.07798988 9.22640991 278.93809509 C20.07361029 252.39245255 28.06562283 224.80489465 32.59765625 196.50976562 C32.93995049 194.37458068 33.29658041 192.24170187 33.65625 190.109375 C35.89335835 176.48933298 36.18646735 162.97842005 36.18530273 149.20922852 C36.18748271 146.33529693 36.20568459 143.4617544 36.22460938 140.58789062 C36.25966888 128.90749374 35.52486507 117.57511214 34 106 C33.72726225 103.54187722 33.4561209 101.08357607 33.1875 98.625 C29.20171319 69.67397485 17.55527011 41.96465272 4.94873047 15.84375 C2.41677379 10.50917071 0.32998234 5.93122098 0 0 Z " fill="#005227" transform="translate(592,320)"/>
</svg>
